<?xml version="1.0" encoding="utf-8"?>
<!-- Svg Vector Icons : http://www.onlinewebfonts.com/icon -->
<!DOCTYPE svg PUBLIC "-//W3C//DTD SVG 1.1//EN" "http://www.w3.org/Graphics/SVG/1.1/DTD/svg11.dtd">
<svg version="1.1" xmlns="http://www.w3.org/2000/svg" xmlns:xlink="http://www.w3.org/1999/xlink" x="0px" y="0px" viewBox="0 0 1000 1000" enable-background="new 0 0 1000 1000" xml:space="preserve">
<metadata> Svg Vector Icons : http://www.onlinewebfonts.com/icon </metadata>
<g><path d="M27.3,195.6c0-6.5,1.2-12.6,3.5-18.2c2.4-5.6,5.7-10.6,10-14.8c4.3-4.3,9.2-7.6,14.8-10c5.6-2.4,11.7-3.5,18.2-3.5c6.5,0,12.6,1.2,18.2,3.5c5.6,2.4,10.6,5.7,14.8,10c4.3,4.3,7.6,9.2,10,14.8c2.4,5.6,3.5,11.7,3.5,18.2c0,6.5-1.2,12.6-3.5,18.2c-2.4,5.6-5.7,10.6-10,14.8c-4.3,4.3-9.2,7.6-14.8,10c-5.6,2.4-11.7,3.5-18.2,3.5c-13.3,0-24.4-4.4-33.2-13.3C31.7,220,27.3,208.9,27.3,195.6L27.3,195.6z M10,195.6c0,8.9,1.6,17.2,4.9,25c3.2,7.8,7.8,14.6,13.5,20.4c5.8,5.8,12.6,10.3,20.4,13.5s16.2,4.9,25,4.9c8.9,0,17.1-1.6,24.8-4.9c7.7-3.2,14.4-7.8,20.2-13.5c5.8-5.8,10.3-12.6,13.7-20.4c3.4-7.8,5.1-16.2,5.1-25c0-8.9-1.7-17.1-5.1-24.8c-3.4-7.7-8-14.4-13.7-20.2c-5.8-5.8-12.5-10.3-20.2-13.7c-7.7-3.4-16-5.1-24.8-5.1c-8.9,0-17.2,1.7-25,5.1s-14.6,8-20.4,13.7c-5.8,5.8-10.3,12.5-13.5,20.2C11.6,178.5,10,186.7,10,195.6L10,195.6z M425.6,223.9h30.1c-2.1-16.5-7-31.2-14.8-43.9c-7.8-12.7-17.6-23.4-29.2-32.1s-24.7-15.3-39-19.7c-14.3-4.4-29-6.6-44.1-6.6c-24.8,0-46.6,4.5-65.4,13.5c-18.8,9-34.3,21.1-46.7,36.3c-12.4,15.2-21.7,32.7-27.9,52.5c-6.2,19.8-9.3,40.6-9.3,62.5s3.1,42.7,9.3,62.5c6.2,19.8,15.5,37.2,27.9,52.3c12.4,15.1,28,27.1,46.7,36.1c18.8,9,40.5,13.5,65.4,13.5c18.6,0,35.5-3,50.7-8.9c15.2-5.9,28.4-14.3,39.7-25.3c11.2-10.9,20.4-24.2,27.5-39.9c7.1-15.7,11.7-33.2,13.7-52.7h-30.1c-1.5,14.2-4.9,27.4-10.2,39.7c-5.3,12.3-12.3,23-20.8,32.1c-8.6,9.2-18.8,16.4-30.6,21.7c-11.8,5.3-25.1,8-39.9,8c-21,0-39-4-54.1-12c-15.1-8-27.4-18.5-37-31.7c-9.6-13.1-16.7-28.1-21.3-44.8c-4.6-16.7-6.9-33.6-6.9-50.7c0-17.4,2.3-34.4,6.9-51c4.6-16.5,11.7-31.4,21.3-44.5s21.9-23.7,37-31.7c15.1-8,33.1-12,54.1-12c11.5,0,22.5,1.7,33,5.1c10.5,3.4,20.1,8.3,28.8,14.8c8.7,6.5,16.1,14.5,22.2,24.1C418.6,201,423,211.8,425.6,223.9z M805.9,588.2l-7.6-3.3V303.2c0-11.8-15-21.8-32.8-21.8c-17.8,0-32.8,10-32.8,21.8v281.7l-7.6,3.4c-36.2,16-59.5,51.9-59.5,91.4c0,55.1,44.8,99.9,99.9,99.9c55.1,0,99.9-44.8,99.9-99.9C865.4,640.1,842.1,604.3,805.9,588.2z M908.3,528.3l-4-3.8V221.5c0-29.6-15.5-58.3-42.4-78.7c-25.9-19.6-60.2-30.5-96.4-30.5c-36.2,0-70.4,10.8-96.4,30.5c-26.9,20.4-42.4,49.1-42.4,78.7v303.1l-4,3.8c-41.5,39.1-65.3,94.3-65.3,151.3c0,55.6,21.6,107.8,60.9,147.1c39.3,39.3,91.5,60.9,147.1,60.9s107.8-21.6,147.1-60.9s60.9-91.5,60.9-147.1C973.6,622.6,949.8,567.4,908.3,528.3L908.3,528.3z M765.5,853.8c-96,0-174.1-78.1-174.1-174.1c0-52,23-100.9,63.1-134.2l6.1-5.1V221.5c0-20.4,12-40.3,32.9-54.5c19.7-13.4,45.3-20.8,71.9-20.8s52.2,7.4,71.9,20.8c20.9,14.2,32.9,34.1,32.9,54.5v318.9l6.1,5.1c40.1,33.2,63.1,82.1,63.1,134.2C939.6,775.7,861.5,853.8,765.5,853.8L765.5,853.8z M944.4,243.4h32.4c7.3,0,13.3-4.8,13.3-10.8s-5.9-10.8-13.3-10.8h-32.4c-7.3,0-13.3,4.8-13.3,10.8S937,243.4,944.4,243.4L944.4,243.4z M976.7,268.8h-32.4c-7.3,0-13.3,4.8-13.3,10.8s5.9,10.8,13.3,10.8h32.4c7.3,0,13.3-4.8,13.3-10.8C990,273.7,984.1,268.8,976.7,268.8L976.7,268.8z M976.7,315.8h-32.4c-7.3,0-13.3,4.8-13.3,10.8c0,6,5.9,10.8,13.3,10.8h32.4c7.3,0,13.3-4.8,13.3-10.8C990,320.6,984.1,315.8,976.7,315.8L976.7,315.8z M976.7,362.8h-32.4c-7.3,0-13.3,4.8-13.3,10.8c0,6,5.9,10.8,13.3,10.8h32.4c7.3,0,13.3-4.8,13.3-10.8C990,367.6,984.1,362.8,976.7,362.8L976.7,362.8z M976.7,409.7h-32.4c-7.3,0-13.3,4.8-13.3,10.8c0,6,5.9,10.8,13.3,10.8h32.4c7.3,0,13.3-4.8,13.3-10.8C990,414.5,984.1,409.7,976.7,409.7L976.7,409.7z M976.7,456.7h-32.4c-7.3,0-13.3,4.8-13.3,10.8c0,6,5.9,10.8,13.3,10.8h32.4c7.3,0,13.3-4.8,13.3-10.8C990,461.5,984.1,456.7,976.7,456.7L976.7,456.7z"/></g>
</svg>